<svg width="31" height="18" viewBox="0 0 31 18" fill="none" xmlns="http://www.w3.org/2000/svg">
<path d="M29.6562 9.81403L28.4921 10.8409L27.328 11.8677L24.9998 9.81403M27.328 11.5536L27.328 6L27.328 11.5536Z" fill="white"/>
<path d="M29.6562 9.81403L28.4921 10.8409L27.328 11.8677L24.9998 9.81403M27.328 11.5536L27.328 6" stroke="white" stroke-width="1.5" stroke-linecap="round" stroke-linejoin="round"/>
<path d="M16.4295 8.80159C15.3739 8.80159 14.3532 8.34251 13.5543 7.50936C12.7775 6.69671 12.3031 5.61301 12.2194 4.45881C12.1301 3.22758 12.5157 2.09538 13.3048 1.27023C14.0939 0.44508 15.1973 0 16.4295 0C17.653 0 18.7594 0.453082 19.546 1.27623C20.3403 2.10738 20.7269 3.23758 20.6375 4.4583C20.5518 5.61401 20.0779 6.69721 19.3026 7.50886C18.5058 8.34251 17.4856 8.80159 16.4295 8.80159ZM23.198 17.6032H9.66155C9.44392 17.6043 9.22892 17.5568 9.0331 17.4643C8.83727 17.3718 8.66585 17.2367 8.53202 17.0696C8.39006 16.8884 8.29203 16.6782 8.24526 16.4549C8.19849 16.2315 8.2042 16.0007 8.26196 15.7798C8.69426 14.089 9.76526 12.6868 11.3589 11.7251C12.7734 10.872 14.574 10.4019 16.4295 10.4019C18.3215 10.4019 20.0748 10.852 21.4975 11.7046C23.0948 12.6613 24.1673 14.0715 24.5976 15.7828C24.6546 16.0039 24.6597 16.2347 24.6124 16.4579C24.5651 16.6811 24.4667 16.8911 24.3244 17.0721C24.1907 17.2385 24.0197 17.3728 23.8245 17.4649C23.6292 17.557 23.4149 17.6043 23.198 17.6032ZM6.72579 9.00163C4.91906 9.00163 3.33052 7.36533 3.18317 5.35447C3.11026 4.32428 3.43988 3.37161 4.10733 2.67298C4.7676 1.98136 5.69895 1.60029 6.72579 1.60029C7.75264 1.60029 8.67681 1.98336 9.34066 2.67898C10.0132 3.38311 10.3418 4.33378 10.2648 5.35547C10.1175 7.36583 8.52945 9.00163 6.72579 9.00163ZM10.0969 10.5744C9.19382 10.1443 8.02168 9.92929 6.72631 9.92929C5.21376 9.92929 3.74486 10.3134 2.58965 11.0105C1.27991 11.8021 0.398872 12.9548 0.0430692 14.3466C-0.00899961 14.5468 -0.0139244 14.7558 0.0286632 14.9581C0.0712509 15.1604 0.160249 15.3507 0.288999 15.5148C0.411167 15.6676 0.567678 15.791 0.746494 15.8756C0.92531 15.9602 1.12167 16.0038 1.32047 16.0029H7.01947C7.11566 16.0029 7.2088 15.97 7.28264 15.9099C7.35648 15.8499 7.40634 15.7665 7.42354 15.6743C7.42919 15.6428 7.43637 15.6113 7.44459 15.5803C7.87997 13.877 8.90015 12.4377 10.4076 11.3886C10.463 11.3496 10.5076 11.2978 10.5373 11.2379C10.567 11.1779 10.5809 11.1117 10.5777 11.0452C10.5745 10.9787 10.5543 10.914 10.5189 10.8571C10.4836 10.8001 10.4342 10.7526 10.3752 10.7189C10.2946 10.6729 10.2022 10.6244 10.0969 10.5744Z" fill="white"/>
</svg>
