<svg width="57" height="49" viewBox="0 0 57 49" fill="none" xmlns="http://www.w3.org/2000/svg">
<rect width="57" height="49" rx="20" fill="#001326"/>
<path d="M28.5 10C20.5046 10 14 16.5046 14 24.5C14 32.4954 20.5046 39 28.5 39C36.4954 39 43 32.4954 43 24.5C43 16.5046 36.4954 10 28.5 10ZM35.3958 31.3958C35.1692 31.6222 34.862 31.7494 34.5417 31.7494C34.2213 31.7494 33.9141 31.6222 33.6875 31.3958L30.4522 28.1613C29.0854 29.1018 27.4164 29.4976 25.7729 29.271C24.1293 29.0443 22.6297 28.2117 21.5684 26.9363C20.5071 25.661 19.9607 24.0351 20.0365 22.3777C20.1122 20.7203 20.8046 19.151 21.9778 17.9778C23.151 16.8046 24.7203 16.1122 26.3777 16.0365C28.0351 15.9607 29.661 16.5071 30.9363 17.5684C32.2117 18.6297 33.0443 20.1293 33.271 21.7729C33.4976 23.4164 33.1018 25.0854 32.1613 26.4522L35.3958 29.6875C35.6222 29.9141 35.7494 30.2213 35.7494 30.5417C35.7494 30.862 35.6222 31.1692 35.3958 31.3958Z" fill="white"/>
<path d="M26.6872 26.9167C29.0229 26.9167 30.9163 25.0232 30.9163 22.6875C30.9163 20.3518 29.0229 18.4583 26.6872 18.4583C24.3515 18.4583 22.458 20.3518 22.458 22.6875C22.458 25.0232 24.3515 26.9167 26.6872 26.9167Z" fill="white"/>
</svg>
