<svg width="24" height="16" viewBox="0 0 24 16" fill="none" xmlns="http://www.w3.org/2000/svg">
<path d="M12.0159 10.7333C13.7096 10.7333 15.0826 9.36034 15.0826 7.66667C15.0826 5.97299 13.7096 4.6 12.0159 4.6C10.3222 4.6 8.94922 5.97299 8.94922 7.66667C8.94922 9.36034 10.3222 10.7333 12.0159 10.7333Z" fill="white"/>
<path d="M18.6674 2.16487C16.5725 0.728333 14.3305 0 12.0041 0C9.91065 0 7.86987 0.622916 5.93835 1.84383C3.99054 3.07769 2.08106 5.31875 0.515625 7.66667C1.78158 9.775 3.51329 11.9427 5.31687 13.1857C7.38592 14.6107 9.6356 15.3333 12.0041 15.3333C14.352 15.3333 16.5969 14.6112 18.6789 13.1871C20.5117 11.9312 22.2559 9.76637 23.5156 7.66667C22.2516 5.58565 20.5017 3.42317 18.6674 2.16487ZM12.0156 12.2667C11.1058 12.2667 10.2165 11.9969 9.46 11.4914C8.70354 10.986 8.11394 10.2676 7.76578 9.42701C7.41762 8.58647 7.32652 7.66156 7.50401 6.76925C7.6815 5.87694 8.11961 5.0573 8.76293 4.41398C9.40626 3.77065 10.2259 3.33255 11.1182 3.15505C12.0105 2.97756 12.9354 3.06866 13.776 3.41682C14.6165 3.76498 15.3349 4.35458 15.8404 5.11104C16.3458 5.86751 16.6156 6.75687 16.6156 7.66667C16.6142 8.88623 16.1291 10.0555 15.2668 10.9178C14.4044 11.7802 13.2352 12.2653 12.0156 12.2667Z" fill="white"/>
</svg>
