<svg width="30" height="19" viewBox="0 0 30 19" fill="none" xmlns="http://www.w3.org/2000/svg">
<path d="M24.0215 8.06813L25.1856 7.04128L26.3497 6.01442L28.678 8.06813M26.3497 6.32853L26.3497 11.8822L26.3497 6.32853Z" fill="white"/>
<path d="M24.0215 8.06813L25.1856 7.04128L26.3497 6.01442L28.678 8.06813M26.3497 6.32853L26.3497 11.8822" stroke="white" stroke-width="1.5" stroke-linecap="round" stroke-linejoin="round"/>
<path d="M16.4543 9.53505C15.4072 9.53505 14.3947 9.07597 13.6022 8.24282C12.8316 7.43017 12.361 6.34647 12.278 5.19226C12.1894 3.96104 12.5719 2.82884 13.3547 2.00369C14.1375 1.17854 15.232 0.733459 16.4543 0.733459C17.6679 0.733459 18.7655 1.18654 19.5457 2.00969C20.3336 2.84084 20.7171 3.97104 20.6285 5.19176C20.5435 6.34747 20.0734 7.43067 19.3043 8.24231C18.5139 9.07596 17.5019 9.53505 16.4543 9.53505ZM23.1684 18.3366H9.74069C9.5248 18.3378 9.31153 18.2903 9.11728 18.1978C8.92303 18.1052 8.75298 17.9702 8.62023 17.803C8.47941 17.6218 8.38216 17.4117 8.33577 17.1883C8.28938 16.965 8.29504 16.7342 8.35234 16.5133C8.78117 14.8225 9.84357 13.4202 11.4244 12.4586C12.8276 11.6054 14.6137 11.1353 16.4543 11.1353C18.3311 11.1353 20.0703 11.5854 21.4816 12.4381C23.066 13.3947 24.1299 14.805 24.5567 16.5163C24.6133 16.7374 24.6184 16.9681 24.5715 17.1914C24.5245 17.4146 24.4269 17.6245 24.2858 17.8055C24.1532 17.9719 23.9835 18.1063 23.7898 18.1984C23.5961 18.2904 23.3836 18.3377 23.1684 18.3366ZM6.82851 9.73508C5.03628 9.73508 3.46051 8.09879 3.31434 6.08793C3.24202 5.05774 3.56899 4.10507 4.23108 3.40644C4.88604 2.71482 5.80991 2.33375 6.82851 2.33375C7.84711 2.33375 8.76385 2.71682 9.42238 3.41244C10.0896 4.11657 10.4155 5.06724 10.3391 6.08893C10.1929 8.09929 8.61768 9.73508 6.82851 9.73508ZM10.1726 11.3079C9.27672 10.8778 8.11398 10.6628 6.82902 10.6628C5.32862 10.6628 3.87152 11.0468 2.72559 11.7439C1.42637 12.5356 0.552406 13.6883 0.199462 15.08C0.147811 15.2802 0.142926 15.4893 0.185171 15.6916C0.227417 15.8939 0.3157 16.0842 0.443416 16.2483C0.564603 16.401 0.719856 16.5245 0.897236 16.6091C1.07462 16.6937 1.2694 16.7372 1.4666 16.7363H7.11983C7.21525 16.7363 7.30763 16.7034 7.38088 16.6434C7.45413 16.5834 7.50359 16.5 7.52065 16.4078C7.52625 16.3763 7.53338 16.3448 7.54153 16.3138C7.97342 14.6105 8.9854 13.1712 10.4807 12.122C10.5357 12.0831 10.5799 12.0313 10.6094 11.9713C10.6389 11.9114 10.6526 11.8452 10.6494 11.7787C10.6463 11.7122 10.6262 11.6475 10.5912 11.5905C10.5561 11.5336 10.5071 11.4861 10.4486 11.4524C10.3687 11.4064 10.277 11.3579 10.1726 11.3079Z" fill="white"/>
</svg>
