<svg width="14" height="21" viewBox="0 0 14 21" fill="none" xmlns="http://www.w3.org/2000/svg">
<path d="M5.97639 20.7816V19.0921C2.26589 18.8797 0.0116726 16.9806 0 14.1018H3.36172C3.44436 15.3236 4.47576 16.2565 5.97639 16.4211V11.8752L4.72649 11.5505C1.87836 10.8927 0.354381 9.25939 0.354381 6.81524C0.354381 3.93411 2.43165 2.04476 5.97639 1.76272V0H7.47049V1.76272C11.0839 2.05496 13.0267 3.97726 13.0734 6.67979H9.71164C9.67616 5.5637 8.97253 4.66704 7.47049 4.54596V8.81361L8.9095 9.15131C11.9346 9.80908 13.4469 11.3649 13.4469 13.9162C13.4469 16.9008 11.4046 18.8277 7.47049 19.0801V20.7816H5.97639ZM5.97639 8.53528V4.54596C4.6882 4.61647 3.76933 5.40274 3.76933 6.51882C3.76933 7.55326 4.53459 8.22959 5.97639 8.53528ZM7.47049 12.1535V16.4211C9.25174 16.3497 10.1029 15.5435 10.1029 14.298C10.1029 13.1578 9.25174 12.3901 7.47049 12.1535Z" fill="white"/>
</svg>
