<svg width="23" height="16" viewBox="0 0 23 16" fill="none" xmlns="http://www.w3.org/2000/svg">
<path d="M11.5003 10.7333C13.1939 10.7333 14.5669 9.36034 14.5669 7.66667C14.5669 5.97299 13.1939 4.6 11.5003 4.6C9.80659 4.6 8.43359 5.97299 8.43359 7.66667C8.43359 9.36034 9.80659 10.7333 11.5003 10.7333Z" fill="white"/>
<path d="M18.1518 2.16487C16.0569 0.728333 13.8149 0 11.4885 0C9.39502 0 7.35425 0.622916 5.42273 1.84383C3.47492 3.07769 1.56544 5.31875 0 7.66667C1.26596 9.775 2.99767 11.9427 4.80125 13.1857C6.87029 14.6107 9.11998 15.3333 11.4885 15.3333C13.8364 15.3333 16.0813 14.6112 18.1633 13.1871C19.9961 11.9312 21.7403 9.76637 23 7.66667C21.736 5.58565 19.986 3.42317 18.1518 2.16487ZM11.5 12.2667C10.5902 12.2667 9.70084 11.9969 8.94438 11.4914C8.18791 10.986 7.59832 10.2676 7.25015 9.42701C6.90199 8.58647 6.8109 7.66156 6.98839 6.76925C7.16588 5.87694 7.60399 5.0573 8.24731 4.41398C8.89063 3.77065 9.71027 3.33255 10.6026 3.15505C11.4949 2.97756 12.4198 3.06866 13.2603 3.41682C14.1009 3.76498 14.8193 4.35458 15.3248 5.11104C15.8302 5.86751 16.1 6.75687 16.1 7.66667C16.0986 8.88623 15.6135 10.0555 14.7512 10.9178C13.8888 11.7802 12.7196 12.2653 11.5 12.2667Z" fill="white"/>
</svg>
