<svg width="26" height="18" viewBox="0 0 26 18" fill="none" xmlns="http://www.w3.org/2000/svg">
<path d="M12.4821 2C8.48089 2 4.37649 4.34948 1.14533 9.04844C1.0531 9.18404 1.00256 9.34433 1.00009 9.50907C0.997628 9.6738 1.04335 9.83558 1.13147 9.97396C3.61414 13.9167 7.66361 17 12.4821 17C17.2482 17 21.3809 13.9073 23.8682 9.95573C23.9542 9.82006 24 9.66212 24 9.50078C24 9.33944 23.9542 9.1815 23.8682 9.04583C21.3752 5.13958 17.2123 2 12.4821 2Z" stroke="white" stroke-linecap="round" stroke-linejoin="round"/>
<line x1="0.614128" y1="16.3569" x2="25.6141" y2="1.35688" stroke="white" stroke-width="1.5"/>
<path d="M12.5 14C14.9853 14 17 12.2091 17 10C17 7.79086 14.9853 6 12.5 6C10.0147 6 8 7.79086 8 10C8 12.2091 10.0147 14 12.5 14Z" fill="white" stroke="white" stroke-miterlimit="10"/>
</svg>
