<svg width="17" height="18" viewBox="0 0 17 18" fill="none" xmlns="http://www.w3.org/2000/svg">
<path fill-rule="evenodd" clip-rule="evenodd" d="M6.99967 12.6219C6.99967 13.0802 6.62467 13.4552 6.16634 13.4552C5.70801 13.4552 5.33301 13.0802 5.33301 12.6219V9.28855C5.33301 8.83022 5.70801 8.45522 6.16634 8.45522C6.62467 8.45522 6.99967 8.83022 6.99967 9.28855V12.6219ZM11.9997 12.6219C11.9997 13.0802 11.6247 13.4552 11.1663 13.4552C10.708 13.4552 10.333 13.0802 10.333 12.6219V9.28855C10.333 8.83022 10.708 8.45522 11.1663 8.45522C11.6247 8.45522 11.9997 8.83022 11.9997 9.28855V12.6219ZM13.6663 15.1219C13.6663 15.581 13.293 15.9552 12.833 15.9552H4.49967C4.03967 15.9552 3.66634 15.581 3.66634 15.1219V5.95522H13.6663V15.1219ZM6.99967 2.89522C6.99967 2.76605 7.17801 2.62188 7.41634 2.62188H9.91634C10.1547 2.62188 10.333 2.76605 10.333 2.89522V4.28855H6.99967V2.89522ZM16.1663 4.28855H15.333H11.9997V2.89522C11.9997 1.82522 11.0655 0.955215 9.91634 0.955215H7.41634C6.26717 0.955215 5.33301 1.82522 5.33301 2.89522V4.28855H1.99967H1.16634C0.708008 4.28855 0.333008 4.66355 0.333008 5.12188C0.333008 5.58022 0.708008 5.95522 1.16634 5.95522H1.99967V15.1219C1.99967 16.5002 3.12134 17.6219 4.49967 17.6219H12.833C14.2113 17.6219 15.333 16.5002 15.333 15.1219V5.95522H16.1663C16.6247 5.95522 16.9997 5.58022 16.9997 5.12188C16.9997 4.66355 16.6247 4.28855 16.1663 4.28855Z" fill="#C5CEE0"/>
</svg>
