<svg width="30" height="19" viewBox="0 0 30 19" fill="none" xmlns="http://www.w3.org/2000/svg">
<path d="M24.5068 8.06813L25.6804 7.04128L26.8539 6.01443L29.201 8.06813M26.8539 6.32853L26.8539 11.8822L26.8539 6.32853Z" fill="white"/>
<path d="M24.5068 8.06813L25.6804 7.04128L26.8539 6.01443L29.201 8.06813M26.8539 6.32853L26.8539 11.8822" stroke="white" stroke-width="1.5" stroke-linecap="round" stroke-linejoin="round"/>
<path d="M16.8782 9.53506C15.8226 9.53506 14.802 9.07597 14.0031 8.24282C13.2263 7.43018 12.7518 6.34648 12.6682 5.19227C12.5788 3.96105 12.9644 2.82885 13.7535 2.0037C14.5427 1.17855 15.646 0.733467 16.8782 0.733467C18.1017 0.733467 19.2082 1.18655 19.9947 2.0097C20.789 2.84085 21.1756 3.97105 21.0863 5.19177C21.0005 6.34748 20.5266 7.43068 19.7514 8.24232C18.9545 9.07597 17.9344 9.53506 16.8782 9.53506ZM23.6467 18.3366H10.1103C9.89265 18.3378 9.67765 18.2903 9.48183 18.1978C9.286 18.1052 9.11458 17.9702 8.98075 17.803C8.83879 17.6218 8.74076 17.4117 8.69399 17.1883C8.64722 16.965 8.65293 16.7342 8.71069 16.5133C9.14299 14.8225 10.214 13.4203 11.8077 12.4586C13.2221 11.6054 15.0227 11.1353 16.8782 11.1353C18.7702 11.1353 20.5235 11.5854 21.9462 12.4381C23.5435 13.3948 24.6161 14.805 25.0463 16.5163C25.1034 16.7374 25.1084 16.9681 25.0611 17.1914C25.0138 17.4146 24.9154 17.6246 24.7732 17.8055C24.6395 17.9719 24.4684 18.1063 24.2732 18.1984C24.0779 18.2904 23.8636 18.3377 23.6467 18.3366ZM7.17453 9.73509C5.36779 9.73509 3.77925 8.0988 3.6319 6.08793C3.55899 5.05775 3.88861 4.10508 4.55606 3.40645C5.21633 2.71482 6.14768 2.33376 7.17453 2.33376C8.20137 2.33376 9.12554 2.71683 9.78939 3.41245C10.462 4.11658 10.7906 5.06725 10.7136 6.08893C10.5662 8.0993 8.97818 9.73509 7.17453 9.73509ZM10.5457 11.3079C9.64255 10.8778 8.47041 10.6628 7.17504 10.6628C5.66249 10.6628 4.19359 11.0468 3.03838 11.744C1.72864 12.5356 0.847602 13.6883 0.4918 15.0801C0.439731 15.2802 0.434806 15.4893 0.477394 15.6916C0.519981 15.8939 0.608979 16.0842 0.73773 16.2483C0.859898 16.401 1.01641 16.5245 1.19522 16.6091C1.37404 16.6937 1.5704 16.7372 1.7692 16.7364H7.4682C7.56439 16.7363 7.65753 16.7034 7.73137 16.6434C7.80521 16.5834 7.85507 16.5 7.87227 16.4078C7.87792 16.3763 7.8851 16.3448 7.89332 16.3138C8.3287 14.6105 9.34888 13.1712 10.8563 12.122C10.9117 12.0831 10.9563 12.0313 10.986 11.9714C11.0157 11.9114 11.0296 11.8452 11.0264 11.7787C11.0232 11.7122 11.003 11.6475 10.9676 11.5905C10.9323 11.5336 10.8829 11.4861 10.8239 11.4524C10.7433 11.4064 10.6509 11.3579 10.5457 11.3079Z" fill="white"/>
</svg>
