<svg width="30" height="19" viewBox="0 0 30 19" fill="none" xmlns="http://www.w3.org/2000/svg">
<path d="M24.4443 8.06814L25.6179 7.04128L26.7914 6.01443L29.1385 8.06814M26.7914 6.32854L26.7914 11.8822L26.7914 6.32854Z" fill="white"/>
<path d="M24.4443 8.06814L25.6179 7.04128L26.7914 6.01443L29.1385 8.06814M26.7914 6.32854L26.7914 11.8822" stroke="white" stroke-width="1.5" stroke-linecap="round" stroke-linejoin="round"/>
<path d="M16.8157 9.53506C15.7601 9.53506 14.7395 9.07597 13.9406 8.24282C13.1638 7.43018 12.6893 6.34648 12.6057 5.19227C12.5163 3.96105 12.9019 2.82885 13.691 2.0037C14.4802 1.17855 15.5835 0.733467 16.8157 0.733467C18.0392 0.733467 19.1457 1.18655 19.9322 2.0097C20.7265 2.84085 21.1131 3.97105 21.0238 5.19177C20.938 6.34748 20.4641 7.43068 19.6889 8.24232C18.892 9.07597 17.8719 9.53506 16.8157 9.53506ZM23.5842 18.3366H10.0478C9.83015 18.3378 9.61515 18.2903 9.41933 18.1978C9.2235 18.1052 9.05208 17.9702 8.91825 17.803C8.77629 17.6218 8.67826 17.4117 8.63149 17.1883C8.58472 16.965 8.59043 16.7342 8.64819 16.5133C9.08049 14.8225 10.1515 13.4203 11.7452 12.4586C13.1596 11.6054 14.9602 11.1353 16.8157 11.1353C18.7077 11.1353 20.461 11.5854 21.8837 12.4381C23.481 13.3948 24.5536 14.805 24.9838 16.5163C25.0409 16.7374 25.0459 16.9681 24.9986 17.1914C24.9513 17.4146 24.8529 17.6246 24.7107 17.8055C24.577 17.9719 24.4059 18.1063 24.2107 18.1984C24.0154 18.2904 23.8011 18.3377 23.5842 18.3366ZM7.11203 9.73509C5.30529 9.73509 3.71675 8.0988 3.5694 6.08793C3.49649 5.05775 3.82611 4.10508 4.49356 3.40645C5.15383 2.71482 6.08518 2.33376 7.11203 2.33376C8.13887 2.33376 9.06304 2.71683 9.72689 3.41245C10.3995 4.11658 10.7281 5.06725 10.6511 6.08893C10.5037 8.0993 8.91568 9.73509 7.11203 9.73509ZM10.4832 11.3079C9.58005 10.8778 8.40791 10.6628 7.11254 10.6628C5.59999 10.6628 4.13109 11.0468 2.97588 11.744C1.66614 12.5356 0.785102 13.6883 0.4293 15.0801C0.377231 15.2802 0.372306 15.4893 0.414894 15.6916C0.457481 15.8939 0.546479 16.0842 0.67523 16.2483C0.797398 16.401 0.953908 16.5245 1.13272 16.6091C1.31154 16.6937 1.5079 16.7372 1.7067 16.7364H7.4057C7.50189 16.7363 7.59503 16.7034 7.66887 16.6434C7.74271 16.5834 7.79257 16.5 7.80977 16.4078C7.81542 16.3763 7.8226 16.3448 7.83082 16.3138C8.2662 14.6105 9.28638 13.1712 10.7938 12.122C10.8492 12.0831 10.8938 12.0313 10.9235 11.9714C10.9532 11.9114 10.9671 11.8452 10.9639 11.7787C10.9607 11.7122 10.9405 11.6475 10.9051 11.5905C10.8698 11.5336 10.8204 11.4861 10.7614 11.4524C10.6808 11.4064 10.5884 11.3579 10.4832 11.3079Z" fill="white"/>
</svg>
