<svg width="37" height="36" viewBox="0 0 37 36" fill="none" xmlns="http://www.w3.org/2000/svg">
<path d="M36.4259 6.37705C36.4077 6.08984 36.2937 5.81703 36.1021 5.60229C35.9105 5.38755 35.6524 5.24329 35.3691 5.1926C28.418 3.94548 25.5162 3.04389 19.0296 0.114117C18.8632 0.0389024 18.6826 0 18.5 0C18.3174 0 18.1368 0.0389024 17.9704 0.114117C11.4838 3.04389 8.58199 3.94548 1.63087 5.1926C1.34758 5.24329 1.08948 5.38755 0.897893 5.60229C0.706306 5.81703 0.592305 6.08984 0.574141 6.37705C0.264756 11.2876 0.92451 15.863 2.53733 19.9765C3.85806 23.3317 5.81265 26.4012 8.29431 29.0173C12.5911 33.5759 17.1532 35.5558 18.0235 35.9062C18.3327 36.0313 18.6785 36.0313 18.9878 35.9062C19.8581 35.5558 24.4201 33.5759 28.7169 29.0173C31.1946 26.4002 33.1453 23.3308 34.4627 19.9765C36.0755 15.863 36.7352 11.2876 36.4259 6.37705ZM25.8987 12.4126L16.9949 22.6981C16.8804 22.8307 16.74 22.9386 16.5823 23.015C16.4246 23.0914 16.253 23.1348 16.078 23.1425H16.0249C15.6884 23.1425 15.3653 23.0107 15.1249 22.7752L11.1712 18.9021C11.0506 18.7839 10.9544 18.6431 10.8882 18.4878C10.822 18.3324 10.787 18.1656 10.7853 17.9967C10.7818 17.6557 10.914 17.3272 11.1527 17.0836C11.3914 16.8401 11.7171 16.7013 12.0581 16.6978C12.3992 16.6943 12.7276 16.8265 12.9712 17.0652L15.9446 19.9813L23.9564 10.7299C24.0669 10.6022 24.2015 10.4976 24.3524 10.4219C24.5034 10.3462 24.6677 10.301 24.8362 10.2888C25.0046 10.2766 25.1737 10.2978 25.334 10.351C25.4943 10.4042 25.6425 10.4885 25.7702 10.5989C25.8978 10.7094 26.0025 10.844 26.0782 10.9949C26.1539 11.1458 26.1991 11.3102 26.2113 11.4786C26.2234 11.647 26.2023 11.8162 26.1491 11.9764C26.0959 12.1367 26.0116 12.2849 25.9011 12.4126H25.8987Z" fill="#001326"/>
</svg>
