<svg width="57" height="49" viewBox="0 0 57 49" fill="none" xmlns="http://www.w3.org/2000/svg">
<rect width="57" height="49" rx="20" fill="#001326"/>
<path d="M38.2999 14.0622C38.23 13.9805 38.1452 13.9147 38.0507 13.8689C37.9561 13.823 37.8538 13.7979 37.75 13.7953C37.6461 13.7926 37.5428 13.8124 37.4463 13.8534C37.3498 13.8943 37.2621 13.9557 37.1885 14.0337L36.5965 14.6602C36.5247 14.7365 36.4844 14.84 36.4844 14.948C36.4844 15.0559 36.5247 15.1594 36.5965 15.2357L37.1392 15.8118C37.1748 15.8498 37.2171 15.88 37.2637 15.9006C37.3102 15.9211 37.3602 15.9317 37.4106 15.9317C37.461 15.9317 37.511 15.9211 37.5576 15.9006C37.6041 15.88 37.6464 15.8498 37.682 15.8118L38.2592 15.2011C38.5512 14.8912 38.5785 14.3864 38.2999 14.0622ZM35.3994 15.9324L26.7591 25.1027C26.7068 25.1582 26.6687 25.2271 26.6486 25.3027L26.2489 26.5684C26.2394 26.6027 26.2387 26.6391 26.247 26.6739C26.2553 26.7086 26.2722 26.7403 26.296 26.7656C26.3198 26.7909 26.3497 26.809 26.3823 26.8178C26.415 26.8266 26.4492 26.8259 26.4815 26.8157L27.6709 26.3908C27.7421 26.3694 27.8069 26.3289 27.859 26.2732L36.484 17.0856C36.5638 16.9998 36.6085 16.8841 36.6085 16.7635C36.6085 16.6428 36.5638 16.5271 36.484 16.4413L36.0077 15.9324C35.927 15.8468 35.8176 15.7987 35.7036 15.7987C35.5895 15.7987 35.4802 15.8468 35.3994 15.9324Z" fill="white"/>
<path d="M34.6999 21.4475L28.8658 27.6626C28.6404 27.9029 28.3632 28.0813 28.0584 28.1822L26.8187 28.6234C26.5245 28.7117 26.2135 28.7151 25.9177 28.6331C25.6219 28.551 25.352 28.3866 25.1358 28.1568C24.9196 27.927 24.765 27.64 24.6879 27.3255C24.6107 27.011 24.6139 26.6803 24.697 26.3675L25.1119 25.0494C25.2066 24.7254 25.374 24.4308 25.5997 24.1909L31.4452 17.987C31.4988 17.9301 31.5353 17.8575 31.5501 17.7786C31.5649 17.6996 31.5574 17.6177 31.5284 17.5433C31.4995 17.4689 31.4504 17.4053 31.3875 17.3605C31.3245 17.3158 31.2505 17.2918 31.1748 17.2918H21.1862C20.4753 17.2918 19.7936 17.5921 19.2909 18.1265C18.7883 18.6609 18.5059 19.3858 18.5059 20.1416V32.3551C18.5059 33.111 18.7883 33.8358 19.2909 34.3703C19.7936 34.9047 20.4753 35.205 21.1862 35.205H32.6734C33.3842 35.205 34.066 34.9047 34.5686 34.3703C35.0713 33.8358 35.3537 33.111 35.3537 32.3551V21.735C35.3537 21.6545 35.3312 21.5758 35.2891 21.5088C35.2469 21.4419 35.1871 21.3897 35.1171 21.359C35.0472 21.3282 34.9702 21.3202 34.8959 21.3359C34.8216 21.3517 34.7534 21.3905 34.6999 21.4475Z" fill="white"/>
</svg>
